<svg width="37" height="35" viewBox="0 0 37 35" fill="none" xmlns="http://www.w3.org/2000/svg">
<path fill-rule="evenodd" clip-rule="evenodd" d="M0.5 2C0.5 1.17157 1.17157 0.5 2 0.5H8C8.71319 0.5 9.32777 1.00217 9.46991 1.70105L10.7268 7.88095H35C35.4478 7.88095 35.8722 8.08104 36.1572 8.4265C36.4421 8.77196 36.5578 9.22667 36.4726 9.66631L34.0704 22.063C33.8624 23.0935 33.2936 24.0142 32.4701 24.6666C31.6512 25.3153 30.6312 25.659 29.5873 25.6429H15.0327C13.9888 25.659 12.9688 25.3153 12.1499 24.6666C11.3268 24.0145 10.7583 23.0945 10.55 22.0646C10.5499 22.0641 10.5498 22.0635 10.5496 22.0629L8.04432 9.74433C8.03401 9.7029 8.02542 9.66078 8.01863 9.61806L6.77436 3.5H2C1.17157 3.5 0.5 2.82843 0.5 2ZM11.3369 10.881L13.4904 21.4694C13.5567 21.7981 13.7394 22.0985 14.0128 22.3151C14.2867 22.5321 14.6332 22.6499 14.9917 22.6431L15.02 22.6429H29.6L29.6283 22.6431C29.9868 22.6499 30.3333 22.5321 30.6072 22.3151C30.8793 22.0995 31.0616 21.801 31.1287 21.4742L33.1814 10.881H11.3369ZM11 31.5238C11 29.8576 12.3659 28.5476 14 28.5476C15.6341 28.5476 17 29.8576 17 31.5238C17 33.1901 15.6341 34.5 14 34.5C12.3659 34.5 11 33.1901 11 31.5238ZM27.5 31.5238C27.5 29.8576 28.8659 28.5476 30.5 28.5476C32.1341 28.5476 33.5 29.8576 33.5 31.5238C33.5 33.1901 32.1341 34.5 30.5 34.5C28.8659 34.5 27.5 33.1901 27.5 31.5238Z" fill="black"/>
</svg>
