<svg width="33" height="36" viewBox="0 0 33 36" fill="none" xmlns="http://www.w3.org/2000/svg">
<path fill-rule="evenodd" clip-rule="evenodd" d="M16.5 3.5C13.2969 3.5 10.75 6.0394 10.75 9.11111C10.75 12.1828 13.2969 14.7222 16.5 14.7222C19.7031 14.7222 22.25 12.1828 22.25 9.11111C22.25 6.0394 19.7031 3.5 16.5 3.5ZM7.75 9.11111C7.75 4.3281 11.695 0.5 16.5 0.5C21.305 0.5 25.25 4.3281 25.25 9.11111C25.25 13.8941 21.305 17.7222 16.5 17.7222C11.695 17.7222 7.75 13.8941 7.75 9.11111ZM3.07312 24.3453C4.7162 22.7337 6.93862 21.8333 9.25 21.8333H23.75C26.0614 21.8333 28.2838 22.7337 29.9269 24.3453C31.5709 25.9578 32.5 28.1512 32.5 30.4444V34C32.5 34.8284 31.8284 35.5 31 35.5C30.1716 35.5 29.5 34.8284 29.5 34V30.4444C29.5 28.9658 28.9014 27.5416 27.8262 26.487C26.75 25.4314 25.2843 24.8333 23.75 24.8333H9.25C7.71574 24.8333 6.25003 25.4314 5.17383 26.487C4.09861 27.5416 3.5 28.9658 3.5 30.4444V34C3.5 34.8284 2.82843 35.5 2 35.5C1.17157 35.5 0.5 34.8284 0.5 34V30.4444C0.5 28.1512 1.42906 25.9578 3.07312 24.3453Z" fill="black"/>
</svg>
