<svg width="36" height="35" viewBox="0 0 36 35" fill="none" xmlns="http://www.w3.org/2000/svg">
<path fill-rule="evenodd" clip-rule="evenodd" d="M16.2222 3.5C9.15069 3.5 3.5 9.04148 3.5 15.7778C3.5 22.5141 9.15069 28.0556 16.2222 28.0556C19.6789 28.0556 22.796 26.7315 25.0797 24.591C25.1135 24.5474 25.15 24.5052 25.1893 24.4646C25.2512 24.4008 25.3173 24.3436 25.3868 24.2932C27.5938 22.0789 28.9444 19.0711 28.9444 15.7778C28.9444 9.04148 23.2938 3.5 16.2222 3.5ZM28.3798 25.467C30.6046 22.8364 31.9444 19.4666 31.9444 15.7778C31.9444 7.29556 24.8601 0.5 16.2222 0.5C7.58432 0.5 0.5 7.29556 0.5 15.7778C0.5 24.26 7.58432 31.0556 16.2222 31.0556C20.0131 31.0556 23.5047 29.7467 26.2296 27.5609L32.9563 34.0774C33.5513 34.6538 34.5009 34.6387 35.0774 34.0437C35.6538 33.4487 35.6387 32.4991 35.0437 31.9226L28.3798 25.467Z" fill="#C4C4C4"/>
</svg>
