<svg width="1904" height="1201" viewBox="0 0 1904 1201" fill="none" xmlns="http://www.w3.org/2000/svg">
<path fill-rule="evenodd" clip-rule="evenodd" d="M-477 1097.5L-367.542 1068.75C-258.083 1040 -39.1667 982.5 179.75 959.5C398.667 936.5 617.583 948 836.5 976.75C1055.42 1005.5 1274.33 1051.5 1493.25 1091.75C1712.17 1132 1931.08 1166.5 2040.54 1183.75L2150 1201V925H2040.54C1931.08 925 1712.17 925 1493.25 925C1274.33 925 1055.42 925 836.5 925C617.583 925 398.667 925 179.75 925C-39.1667 925 -258.083 925 -367.542 925H-477V1097.5Z" fill="#FFF7E1"/>
<rect x="-1" y="288" width="1911" height="637" fill="#FFF7E1"/>
<path fill-rule="evenodd" clip-rule="evenodd" d="M-477 108L-367.542 138C-258.083 168 -39.1667 228 179.75 252C398.667 276 617.583 264 836.5 234C1055.42 204 1274.33 156 1493.25 114C1712.17 72 1931.08 36 2040.54 18L2150 0V288H2040.54C1931.08 288 1712.17 288 1493.25 288C1274.33 288 1055.42 288 836.5 288C617.583 288 398.667 288 179.75 288C-39.1667 288 -258.083 288 -367.542 288H-477V108Z" fill="#FFF7E1"/>
</svg>
