<svg width="127" height="19" viewBox="0 0 127 19" fill="none" xmlns="http://www.w3.org/2000/svg">
<path d="M0.831238 16.0602C-0.998416 12.8429 0.246618 7.79684 4.03168 4.02143C8.33002 -0.264162 14.2734 -1.28587 17.3079 1.73945C17.3114 1.74341 17.3144 1.7479 17.3193 1.75192C16.712 3.51381 14.778 7.26265 8.98091 9.28945C3.67048 11.1471 1.62197 14.1005 0.831238 16.0602ZM18.1614 2.84081C17.7014 3.91077 16.9009 5.30904 15.5215 6.68435C14.1351 8.06746 12.1645 9.42587 9.37332 10.4022C3.70834 12.3831 2.12554 15.6259 1.68391 17.1974C1.70478 17.2184 1.72272 17.2401 1.743 17.2605C4.77719 20.2859 10.7208 19.2643 15.0188 14.978C18.8433 11.1643 20.0732 6.05278 18.1614 2.84081Z" fill="#505050"/>
<path d="M27.8187 16.0602C25.989 12.8429 27.2341 7.79684 31.0191 4.02143C35.3175 -0.264162 41.2609 -1.28587 44.2953 1.73945C44.2989 1.74341 44.3019 1.7479 44.3067 1.75192C43.6994 3.51381 41.7655 7.26265 35.9684 9.28945C30.6579 11.1471 28.6094 14.1005 27.8187 16.0602ZM45.1488 2.84081C44.6889 3.91077 43.8883 5.30904 42.509 6.68435C41.1225 8.06746 39.152 9.42587 36.3608 10.4022C30.6958 12.3831 29.113 15.6259 28.6714 17.1974C28.6922 17.2184 28.7102 17.2401 28.7305 17.2605C31.7646 20.2859 37.7083 19.2643 42.0063 14.978C45.8307 11.1643 47.0607 6.05278 45.1488 2.84081Z" fill="#505050"/>
<path d="M54.8062 16.0602C52.9765 12.8429 54.2215 7.79684 58.0066 4.02143C62.3049 -0.264162 68.2483 -1.28587 71.2828 1.73945C71.2864 1.74341 71.2893 1.7479 71.2942 1.75192C70.6869 3.51381 68.7529 7.26265 62.9558 9.28945C57.6454 11.1471 55.5969 14.1005 54.8062 16.0602ZM72.1363 2.84081C71.6763 3.91077 70.8758 5.30904 69.4964 6.68435C68.11 8.06746 66.1394 9.42587 63.3482 10.4022C57.6833 12.3831 56.1004 15.6259 55.6588 17.1974C55.6797 17.2184 55.6976 17.2401 55.7179 17.2605C58.7521 20.2859 64.6957 19.2643 68.9938 14.978C72.8182 11.1643 74.0482 6.05278 72.1363 2.84081Z" fill="#505050"/>
<path d="M81.7938 16.0602C79.9642 12.8429 81.2092 7.79684 84.9943 4.02143C89.2926 -0.264162 95.236 -1.28587 98.2705 1.73945C98.274 1.74341 98.277 1.7479 98.2819 1.75192C97.6746 3.51381 95.7406 7.26265 89.9435 9.28945C84.6331 11.1471 82.5846 14.1005 81.7938 16.0602ZM99.124 2.84081C98.664 3.91077 97.8634 5.30904 96.4841 6.68435C95.0977 8.06746 93.1271 9.42587 90.3359 10.4022C84.6709 12.3831 83.0881 15.6259 82.6465 17.1974C82.6674 17.2184 82.6853 17.2401 82.7056 17.2605C85.7398 20.2859 91.6834 19.2643 95.9814 14.978C99.8059 11.1643 101.036 6.05278 99.124 2.84081Z" fill="#505050"/>
<path d="M108.781 16.0602C106.951 12.8429 108.196 7.79684 111.981 4.02143C116.28 -0.264162 122.223 -1.28587 125.258 1.73945C125.261 1.74341 125.264 1.7479 125.269 1.75192C124.662 3.51381 122.728 7.26265 116.931 9.28945C111.62 11.1471 109.572 14.1005 108.781 16.0602ZM126.111 2.84081C125.651 3.91077 124.851 5.30904 123.471 6.68435C122.085 8.06746 120.114 9.42587 117.323 10.4022C111.658 12.3831 110.075 15.6259 109.634 17.1974C109.655 17.2184 109.673 17.2401 109.693 17.2605C112.727 20.2859 118.671 19.2643 122.969 14.978C126.793 11.1643 128.023 6.05278 126.111 2.84081Z" fill="#505050"/>
</svg>
