<svg width="1904" height="276" viewBox="0 0 1904 276" fill="none" xmlns="http://www.w3.org/2000/svg">
<path fill-rule="evenodd" clip-rule="evenodd" d="M-477 172.5L-367.542 143.75C-258.083 115 -39.1667 57.5 179.75 34.5C398.667 11.5 617.583 23 836.5 51.75C1055.42 80.5 1274.33 126.5 1493.25 166.75C1712.17 207 1931.08 241.5 2040.54 258.75L2150 276V0H2040.54C1931.08 0 1712.17 0 1493.25 0C1274.33 0 1055.42 0 836.5 0C617.583 0 398.667 0 179.75 0C-39.1667 0 -258.083 0 -367.542 0H-477V172.5Z" fill="#FFF7E1"/>
</svg>
