<svg width="1904" height="289" viewBox="0 0 1904 289" fill="none" xmlns="http://www.w3.org/2000/svg">
<path fill-rule="evenodd" clip-rule="evenodd" d="M-477 180.614L-367.542 150.614C-258.083 120.614 -39.1667 60.6143 179.75 36.6143C398.667 12.6143 617.583 24.6143 836.5 54.6143C1055.42 84.6143 1274.33 132.614 1493.25 174.614C1712.17 216.614 1931.08 252.614 2040.54 270.614L2150 288.614V0.614258H2040.54C1931.08 0.614258 1712.17 0.614258 1493.25 0.614258C1274.33 0.614258 1055.42 0.614258 836.5 0.614258C617.583 0.614258 398.667 0.614258 179.75 0.614258C-39.1667 0.614258 -258.083 0.614258 -367.542 0.614258H-477V180.614Z" fill="#F9B300"/>
</svg>
